/* XPM */
static char * icon50_xpm[] = {
"50 50 4 1",
" 	c None",
".	c #FFFFFF",
"+	c #F90404",
"@	c #000000",
".........................++++++++++...............",
".........................++++++++++...............",
".........................+........+...............",
".........................+........+...............",
".........................+........+...............",
".........................+........+...............",
".........................+........+...............",
".........................+........+...............",
".........................+........+...............",
".........................+........+...............",
"..........@@@@@@@........+.....@@@@@@@@@@.........",
"........@@@@@@@@@@@@.....+.....@@@@@@@@@@@@@......",
".......@@@@@@@@@@@@@@....+.....@@@@@@@@@@@@@@.....",
"......@@@@@@@@@@@@@@@@...+.....@@@@@@@@@@@@@@@....",
".....@@@@@@......@@@@@@..+.....@@@@......@@@@@@...",
"....@@@@@..........@@@@@.+.....@@@@.......@@@@@...",
"....@@@@............@@@@.+.....@@@@........@@@@@..",
"...@@@@@............@@@@@+.....@@@@.........@@@@..",
"...@@@@..............@@@@+.....@@@@.........@@@@..",
"...@@@@..............@@@@+.....@@@@.........@@@@..",
"..@@@@................@@@@.....@@@@.........@@@@..",
"..@@@@................@@@@.....@@@@.........@@@@..",
"..@@@@................@@@@.....@@@@........@@@@@..",
"..@@@@................@@@@.....@@@@.......@@@@@...",
"..@@@@................@@@@.....@@@@......@@@@@@...",
"++@@@@++++++++++......@@@@.....@@@@@@@@@@@@@@@++++",
"..@@@@.........+......@@@@.....@@@@@@@@@@@@@@.....",
"..@@@@.........+......@@@@.....@@@@@@@@@@@@@......",
"..@@@@.........+......@@@@.....@@@@@@@@@@@........",
"..@@@@@........+.....@@@@@.....@@@@...............",
"...@@@@........+.....@@@@+.....@@@@...............",
"...@@@@........+.....@@@@+.....@@@@...............",
"...@@@@@.......+....@@@@@+.....@@@@...............",
"....@@@@.......+...@@@@@.+.....@@@@...............",
"....@@@@@......+..@@@@@@.+.....@@@@...............",
".....@@@@@@....+.@@@@@@..+.....@@@@...............",
"......@@@@@@@@@@@@@@@@...+.....@@@@...............",
".......@@@@@@@@@@@@@@....+.....@@@@...............",
"..........@@@@@@@@@@.....+.....@@@@...............",
"..........@@@@@@@@@@@....+.....@@@@...............",
"...............+.@@@@@...+........................",
"...............+.@@@@@@..+........................",
"...............+..@@@@@@@@@@@.....................",
"...............+...@@@@@@@@@@.....................",
"...............+.....@@@@@@@@.....................",
"...............+........@@@@......................",
"...............+.........+........................",
"...............+.........+........................",
"...............+++++++++++........................",
"...............+++++++++++........................"};
