/* XPM */
static char * icon50_xpm[] = {
"50 50 132 2",
"  	c None",
". 	c #FFFFFF",
"+ 	c #FF0000",
"@ 	c #FEFEFE",
"# 	c #C7C5C5",
"$ 	c #817C7C",
"% 	c #433B3B",
"& 	c #2A2121",
"* 	c #150B0B",
"= 	c #140A0A",
"- 	c #292020",
"; 	c #423A3A",
"> 	c #7F7A7A",
", 	c #C5C3C3",
"' 	c #0B0000",
") 	c #0F0505",
"! 	c #1F1515",
"~ 	c #393131",
"{ 	c #6D6767",
"] 	c #BBB8B8",
"^ 	c #BFBDBD",
"/ 	c #3C3434",
"( 	c #3B3333",
"_ 	c #BE0000",
": 	c #372E2E",
"< 	c #D2D1D1",
"[ 	c #FE0000",
"} 	c #7A7575",
"| 	c #CCCACA",
"1 	c #605959",
"2 	c #3A3232",
"3 	c #999595",
"4 	c #D9D8D8",
"5 	c #F2F2F2",
"6 	c #F3F3F3",
"7 	c #DAD9D9",
"8 	c #9B9797",
"9 	c #F8F8F8",
"0 	c #8A8585",
"a 	c #170D0D",
"b 	c #281F1F",
"c 	c #F9F9F9",
"d 	c #8F8A8A",
"e 	c #0D0303",
"f 	c #959191",
"g 	c #FDFDFD",
"h 	c #979393",
"i 	c #908B8B",
"j 	c #D1CFCF",
"k 	c #9F9B9B",
"l 	c #D30000",
"m 	c #0E0404",
"n 	c #A6A3A3",
"o 	c #D3D2D2",
"p 	c #858080",
"q 	c #564F4F",
"r 	c #600000",
"s 	c #645E5E",
"t 	c #635C5C",
"u 	c #D5D4D4",
"v 	c #261D1D",
"w 	c #E40000",
"x 	c #E8E7E7",
"y 	c #E7E6E6",
"z 	c #0E0000",
"A 	c #E3E2E2",
"B 	c #F6F6F6",
"C 	c #130909",
"D 	c #A00000",
"E 	c #585151",
"F 	c #575050",
"G 	c #A09C9C",
"H 	c #F5F5F5",
"I 	c #9C9898",
"J 	c #9A9696",
"K 	c #D4D3D3",
"L 	c #271E1E",
"M 	c #CECCCC",
"N 	c #CDCBCB",
"O 	c #372F2F",
"P 	c #868181",
"Q 	c #241B1B",
"R 	c #E8E8E8",
"S 	c #251C1C",
"T 	c #160C0C",
"U 	c #9E9A9A",
"V 	c #120808",
"W 	c #DBDADA",
"X 	c #8C8787",
"Y 	c #180E0E",
"Z 	c #110707",
"` 	c #CAC8C8",
" .	c #231A1A",
"..	c #E9E9E9",
"+.	c #201616",
"@.	c #342B2B",
"#.	c #D0CECE",
"$.	c #CFCDCD",
"%.	c #1E1414",
"&.	c #383030",
"*.	c #6B6565",
"=.	c #B8B5B5",
"-.	c #666060",
";.	c #A4A0A0",
">.	c #100000",
",.	c #EFEFEF",
"'.	c #5E5757",
").	c #635D5D",
"!.	c #6D0000",
"~.	c #D2D0D0",
"{.	c #E4E3E3",
"].	c #8B8686",
"^.	c #A8A5A5",
"/.	c #5C5555",
"(.	c #F4F4F4",
"_.	c #756F6F",
":.	c #190F0F",
"<.	c #BCB9B9",
"[.	c #6E6868",
"}.	c #E5E4E4",
"|.	c #C3C1C1",
"1.	c #7C7777",
"2.	c #403838",
"3.	c #352C2C",
"4.	c #2D2424",
"5.	c #F0F0F0",
"6.	c #ACA9A9",
"7.	c #918D8D",
"8.	c #736D6D",
"9.	c #FAFAFA",
"0.	c #3F3737",
"a.	c #EAEAEA",
". . . . . . . . . . + + + + . . . . . . . . . . . . . . . . . . . . . . . . . . . . . . . . . . . . ",
". . . . . . . . . . + . . . + + . . . . . . . . . . . . . . . . . . . . . . . . . . . . . . . . . . ",
". . . . . . . . . + + . . . . + + . . . . . . . . . . . . . . . . . . . . . . . . . . . . . . . . . ",
". . . . . . . + + . . . . . . . + . . . . . . . . . . . . . . . . . . . . . . . . . . . . . . . . . ",
". . . . . . . + . . . . . . . . + + . . . . . . . . . . . . . . . . . . . . . . . . . . . . . . . . ",
". . . . . . + + . . . . . . . . . + + . . . . . . . . . . . . . . . . . . . . . . . . . . . . . . . ",
". . . . . . + . . . . . . . . . . . + . . . . . . . . . . . . . . . . . . . . . . . . . . . . . . . ",
". . . . . + + . . . . . . . . . . . + + + . . . . . . . . . . . . . . . . . . . . . . . . . . . . . ",
". . . . . + . . @ # $ % & * = - ; > , @ + . . . . . . . . . . ' ' ' ' ' ' ' ' ) ! ~ { ] @ . . . . . ",
". . . . . + . ^ / ' ' ' ' ' ' ' ' ' ' ( _ . . . . . . . . . . ' ' ' ' ' ' ' ' ' ' ' ' ' : < . . . . ",
". . . . + [ } ' ' ' ' ' ' ' ' ' ' ' ' ' ' } @ . . . . . . . . ' ' ' ' ' ' ' ' ' ' ' ' ' ' = | . . . ",
". . . . [ 1 ' ' ' ' 2 3 4 5 6 7 8 / ' ' ' ' 1 @ . . . . . . . ' ' ' ' . . . . 9 4 0 a ' ' ' b c . . ",
". . . + d ' ' ' e f g . . . . . . @ h e ' ' ' i . . . . . . . ' ' ' ' . . . . . . . j * ' ' ' k . . ",
". . . l m ' ' ' n . . . . . . . . . . n ' ' ' ) o . . . . . . ' ' ' ' . . . . . . . . p ' ' ' q . . ",
". . . r ' ' ' s . . . . . . . . . . . . t ' ' ' 1 . . . . . . ' ' ' ' . . . . . . . . u ' ' ' v . . ",
". . w m ' ' m x . . . . . . . . . . . . y z ' ' e A . . . . . ' ' ' ' . . . . . . . . B ' ' ' C . . ",
". . D ' ' ' E . . . . . . . . . . . . . . F ' ' ' G . . . . . ' ' ' ' . . . . . . . . H ' ' ' = . . ",
". + s ' ' ' I . . . . . . . . . . . . . . J ' ' ' s . . . . . ' ' ' ' . . . . . . . . K ' ' ' L . . ",
". + : ' ' ' M . . . . . . . . . . . . . . N ' ' ' O . . . . . ' ' ' ' . . . . . . . . P ' ' ' q . . ",
". + Q ' ' ' R . . . . . . . . . . . . . . y ' ' ' S . . . . . ' ' ' ' . . . . . . . o T ' ' ' U . . ",
". + V ' ' ' 9 . . . . . . . . . . . . . . B ' ' ' C . . . . . ' ' ' ' . . . . c W X Y ' ' ' v 9 . . ",
". + V ' ' ' 9 . . . . . . . . . . . . . . 9 ' ' ' Z . . . . . ' ' ' ' ' ' ' ' ' ' ' ' ' ' C ` . . . ",
"+ .  .' ' ' ... . . . . . . . . . . . . . x ' ' ' +.. . . . . ' ' ' ' ' ' ' ' ' ' ' ' ' @.#.. . . . ",
"+ . : ' ' ' $.. . . . . . . . . . . . . . M ' ' ' 2 . . . . . ' ' ' ' ' ' ' ' ) %.&.*.=.g . . . . . ",
"+ . t ' ' ' I . . . . . . . . . . . . . . 8 ' ' ' -.. . . . . ' ' ' ' . . . . . . . . . . . . . + + ",
". . U ' ' ' E . . . . . . . . . . . . . . E ' ' ' ;.. . . . . ' ' ' ' . . . . . . . . . . . . . + . ",
". . A e ' ' ) x . . . . . . . . . . . . x m ' ' >.,.. . . . . ' ' ' ' . . . . . . . . . . . . + + . ",
". . . '.' ' ' s . . . . . . . . . . . . ).' ' ' !.. . . . . . ' ' ' ' . . . . . . . . . . . . + . . ",
". . . ~.m ' ' ' n . . . . . . . . . . n ' ' ' Y {.+ . . . . . ' ' ' ' . . . . . . . . . . . . + . . ",
". . . . ].' ' ' e f g . . . . . . @ h e ' ' ' ^.. + . . . . . ' ' ' ' . . . . . . . . . . . + . . . ",
". . . . @ /.' ' ' ' 2 J 7 6 (.7 I / ' ' ' ' d . . + . . . . . ' ' ' ' . . . . . . . . . . . + . . . ",
". . . . . g _.' ' ' ' ' ' ' ' ' ' ' ' ' :.^.. . . + . . . . . ' ' ' ' . . . . . . . . . . + + . . . ",
". . . . . . . <.&.' ' ' ' ' ' ' ' ' ) [.}.. . . . . + . . . . ' ' ' ' . . . . . . . . . . + . . . . ",
". . . . . . . . @ |.1.2.L C ' ' ' ' V ~.. . . . . . + . . . . ' ' ' ' . . . . . . . . . . + . . . . ",
". . . . . . . . . . . . . . . H 3.' ' 4.5.. . . . . . + . . . . . . . . . . . . . . . . + + . . . . ",
". . . . . . . . . . . . . . . . 4 a ' ' E . . . . . . + . . . . . . . . . . . . . . . . + . . . . . ",
". . . . . . . . . . . . . . . . . 6.' ' ' 7.. . . . . + + . . . . . . . . . . . . . . . + . . . . . ",
". . . . . . . . . . . . . . . . . . 8.' ' m # . . . . . + . . . . . . . . . . . . . . + + . . . . . ",
". . . . . . . . . . . . . . . . . . 9.0.' ' Q a.. . . . + + + . . . . . . . . . . . . + . . . . . . ",
". . . . . . . . . . . . . . . . . . . . . . . . . . . . . . + . . . . . . . . . . . . + . . . . . . ",
". . . . . . . . . . . . . . . . . . . . . . . . . . . . . . + . . . . . . . . . . . + + . . . . . . ",
". . . . . . . . . . . . . . . . . . . . . . . . . . . . . . . + . . . . . . . . . . + . . . . . . . ",
". . . . . . . . . . . . . . . . . . . . . . . . . . . . . . . + . . . . . . . . . . + . . . . . . . ",
". . . . . . . . . . . . . . . . . . . . . . . . . . . . . . . + + . . . . . . . . + . . . . . . . . ",
". . . . . . . . . . . . . . . . . . . . . . . . . . . . . . . . + . . . . . . . . + . . . . . . . . ",
". . . . . . . . . . . . . . . . . . . . . . . . . . . . . . . . + + . . . . . . + . . . . . . . . . ",
". . . . . . . . . . . . . . . . . . . . . . . . . . . . . . . . . + . . . . . + + . . . . . . . . . ",
". . . . . . . . . . . . . . . . . . . . . . . . . . . . . . . . . + + . . + + . . . . . . . . . . . ",
". . . . . . . . . . . . . . . . . . . . . . . . . . . . . . . . . . + + + + . . . . . . . . . . . . ",
". . . . . . . . . . . . . . . . . . . . . . . . . . . . . . . . . . . + . . . . . . . . . . . . . . "};
